<?xml version="1.0" encoding="UTF-8"?>
<svg id="Layer_2" data-name="Layer 2" xmlns="http://www.w3.org/2000/svg" viewBox="0 0 410.82 91.05">
  <defs>
    <style>
      .cls-1 {
        fill: #00f6eb;
      }

      .cls-1, .cls-2, .cls-3 {
        stroke-width: 0px;
      }

      .cls-4 {
        stroke: #fff;
      }

      .cls-4, .cls-5, .cls-6 {
        fill: none;
        stroke-miterlimit: 10;
        stroke-width: .25px;
      }

      .cls-5 {
        stroke: #00f6eb;
      }

      .cls-6 {
        stroke: #ff004a;
      }

      .cls-7 {
        isolation: isolate;
      }

      .cls-2 {
        fill: #fff;
      }

      .cls-3 {
        fill: #ff004a;
      }
    </style>
  </defs>
  <g id="Layer_1-2" data-name="Layer 1">
    <g>
      <g id="Group_98164" data-name="Group 98164">
        <path id="Path_28079" data-name="Path 28079" class="cls-1" d="M93.24,85.76c-2.35,0-4.66-.58-6.73-1.69-5.34-2.83-8.24-8.79-7.19-14.74l5.23-28.45c.13-.68.79-1.13,1.47-1.01.3.06.57.22.76.46l17.77,22.99c3.35,4.37,3.8,10.31,1.15,15.14-2.51,4.52-7.29,7.32-12.46,7.3M86.51,44.1l-4.66,25.37s-.06.31-.06.31c-.86,4.88,1.53,9.75,5.9,12.07,5.64,3.03,12.67.98,15.8-4.61,2.17-3.95,1.81-8.81-.94-12.39l-16.04-20.75ZM48.92,76.15c-3,0-5.94-.76-8.56-2.21-5.86-3.16-9.37-9.41-9.04-16.06.02-.43.26-.83.64-1.04.38-.21.84-.21,1.22,0l25.63,14.08c.61.33.83,1.09.5,1.7-.1.18-.23.33-.4.44-2.94,2.01-6.43,3.09-9.99,3.09M33.87,60.09c.46,4.93,3.35,9.3,7.7,11.64,4.36,2.41,9.62,2.53,14.09.32l-21.79-11.96ZM63.63,67.09c-.21,0-.42-.05-.61-.16l-28.61-15.7c-.29-.16-.51-.44-.6-.76-.09-.32-.05-.67.11-.96l4-7.09c.34-.6,1.1-.82,1.7-.49l28.6,15.7c.3.16.51.43.6.76.1.32.05.67-.11.96l-4,7.09c-.22.4-.64.64-1.1.64M36.74,49.64l26.4,14.49,2.76-4.9-26.4-14.49-2.76,4.9ZM71.56,53c-.21,0-.42-.06-.6-.16l-28.61-15.71c-.29-.16-.51-.43-.6-.76-.09-.32-.05-.67.11-.96l4-7.09c.34-.6,1.1-.82,1.7-.49l28.6,15.71c.29.16.51.43.6.76.09.32.05.67-.11.96l-4,7.09c-.22.4-.64.65-1.1.65M44.67,35.54l26.4,14.5,2.76-4.9-26.4-14.5-2.76,4.9ZM14.28,42.4c-2.45,0-4.86-.63-6.99-1.83C.57,36.85-1.85,28.38,1.87,21.66c.03-.06.07-.12.1-.18,2.79-4.78,8.09-7.51,13.59-7.01l29.15,2.77c.69.07,1.2.68,1.13,1.37-.03.32-.18.61-.41.82l-21.47,19.19s-.23.21-.24.21c-2.61,2.31-5.97,3.58-9.45,3.58M14.29,16.93c-4.17,0-8.03,2.2-10.13,5.81-1.53,2.62-1.93,5.75-1.11,8.67.81,2.97,2.79,5.48,5.48,6.97,4.36,2.46,9.79,1.88,13.54-1.43l19.56-17.48-26.28-2.5c-.35-.03-.7-.05-1.05-.05M78.02,38.09c-.21,0-.42-.05-.61-.15l-25.64-14.08c-.61-.33-.83-1.1-.49-1.71.1-.17.23-.32.4-.43,5.52-3.78,12.7-4.12,18.55-.88,5.86,3.16,9.37,9.41,9.05,16.06-.03.67-.58,1.2-1.25,1.19M54.93,22.72l21.79,11.96c-.46-4.92-3.35-9.29-7.69-11.65-4.36-2.41-9.63-2.52-14.09-.32M84.57,24.42c-1.18,0-2.35-.3-3.39-.87-3.34-1.81-4.58-5.99-2.77-9.33.02-.03.04-.07.06-.1,1.91-3.34,6.14-4.53,9.51-2.68,1.63.88,2.83,2.39,3.34,4.17.51,1.76.28,3.66-.63,5.25-1.25,2.21-3.59,3.57-6.12,3.56M84.58,13.08c-1.63,0-3.13.86-3.93,2.28-.57,1.01-.72,2.22-.39,3.33.33,1.13,1.09,2.09,2.13,2.66,2.16,1.2,4.88.43,6.11-1.71.58-1.01.72-2.21.39-3.33-.32-1.14-1.09-2.1-2.13-2.66-.67-.37-1.42-.56-2.18-.56M65.53,13.98c-1.18,0-2.35-.3-3.38-.87-3.34-1.81-4.58-5.99-2.77-9.33.02-.03.04-.07.06-.1,1.91-3.34,6.14-4.53,9.51-2.68,1.63.88,2.84,2.39,3.34,4.17.51,1.76.28,3.66-.63,5.26-1.25,2.21-3.59,3.56-6.13,3.56M65.55,2.64c-1.62,0-3.13.86-3.93,2.27-.57,1.01-.72,2.22-.39,3.33.33,1.14,1.09,2.09,2.13,2.66,2.16,1.19,4.88.43,6.11-1.71.58-1.01.72-2.21.39-3.33-.33-1.14-1.09-2.1-2.13-2.66-.67-.37-1.42-.56-2.18-.56"/>
        <path id="Path_28080" data-name="Path 28080" class="cls-5" d="M93.24,85.76c-2.35,0-4.66-.58-6.73-1.69-5.34-2.83-8.24-8.79-7.19-14.74l5.23-28.45c.13-.68.79-1.13,1.47-1.01.3.06.57.22.76.46l17.77,22.99c3.35,4.37,3.8,10.31,1.15,15.14-2.51,4.52-7.29,7.32-12.46,7.3ZM86.51,44.1l-4.66,25.37s-.06.31-.06.31c-.86,4.88,1.53,9.75,5.9,12.07,5.64,3.03,12.67.98,15.8-4.61,2.17-3.95,1.81-8.81-.94-12.39l-16.04-20.75ZM48.92,76.15c-3,0-5.94-.76-8.56-2.21-5.86-3.16-9.37-9.41-9.04-16.06.02-.43.26-.83.64-1.04.38-.21.84-.21,1.22,0l25.63,14.08c.61.33.83,1.09.5,1.7-.1.18-.23.33-.4.44-2.94,2.01-6.43,3.09-9.99,3.09h0ZM33.87,60.09c.46,4.93,3.35,9.3,7.7,11.65,4.36,2.41,9.62,2.53,14.09.32l-21.79-11.96ZM63.63,67.09c-.21,0-.42-.05-.61-.16l-28.61-15.7c-.29-.16-.51-.44-.6-.76-.09-.32-.05-.67.11-.96l4-7.09c.34-.6,1.1-.82,1.7-.49l28.6,15.7c.3.16.51.43.6.76.1.32.05.67-.11.96l-4,7.09c-.22.4-.64.64-1.1.64ZM36.74,49.64l26.4,14.49,2.76-4.9-26.4-14.49-2.76,4.9ZM71.56,53c-.21,0-.42-.06-.6-.16l-28.61-15.71c-.29-.16-.51-.43-.6-.76-.09-.32-.05-.67.11-.96l4-7.09c.34-.6,1.1-.82,1.7-.49l28.6,15.71c.29.16.51.43.6.76.09.32.05.67-.11.96l-4,7.09c-.22.4-.64.65-1.1.65h0ZM44.67,35.54l26.4,14.5,2.76-4.9-26.4-14.5-2.76,4.9ZM14.28,42.4c-2.45,0-4.86-.63-6.99-1.83C.57,36.85-1.85,28.38,1.87,21.66c.03-.06.07-.12.1-.18,2.79-4.78,8.09-7.51,13.59-7.01l29.15,2.77c.69.07,1.2.68,1.13,1.37-.03.32-.18.61-.41.82l-21.47,19.19s-.23.21-.24.21c-2.61,2.31-5.97,3.58-9.45,3.58ZM14.29,16.93c-4.17,0-8.03,2.2-10.13,5.81-1.53,2.62-1.93,5.75-1.11,8.67.81,2.97,2.79,5.48,5.48,6.97,4.36,2.46,9.79,1.88,13.54-1.43l19.56-17.48-26.28-2.5c-.35-.03-.7-.05-1.05-.05ZM78.02,38.09c-.21,0-.42-.05-.61-.15l-25.64-14.08c-.61-.33-.83-1.1-.49-1.71.1-.17.23-.32.4-.43,5.52-3.78,12.7-4.12,18.55-.88,5.86,3.16,9.37,9.41,9.05,16.06-.03.67-.58,1.2-1.25,1.19h0ZM54.93,22.72l21.79,11.96c-.46-4.92-3.35-9.29-7.69-11.65-4.36-2.41-9.63-2.52-14.09-.32h0ZM84.56,24.43c-1.18,0-2.35-.3-3.39-.87-3.34-1.81-4.58-5.99-2.77-9.33.02-.03.04-.07.06-.1,1.91-3.34,6.14-4.53,9.51-2.68,1.63.88,2.83,2.39,3.34,4.17.51,1.76.28,3.66-.63,5.25-1.25,2.21-3.59,3.57-6.12,3.56h0ZM84.58,13.09c-1.62,0-3.13.86-3.93,2.27-.57,1.01-.72,2.22-.39,3.33.33,1.13,1.09,2.09,2.13,2.66,2.16,1.2,4.88.43,6.11-1.71.58-1.01.72-2.21.39-3.33-.32-1.14-1.09-2.1-2.13-2.66-.67-.37-1.42-.56-2.18-.56h0ZM65.53,13.98c-1.18,0-2.35-.3-3.38-.87-3.34-1.81-4.58-5.99-2.77-9.33.02-.03.04-.07.06-.1,1.91-3.34,6.14-4.53,9.51-2.68,1.63.88,2.84,2.39,3.34,4.17.51,1.76.28,3.66-.63,5.26-1.25,2.21-3.59,3.56-6.13,3.56h0ZM65.55,2.64c-1.62,0-3.13.86-3.93,2.27-.57,1.01-.72,2.22-.39,3.33.33,1.14,1.09,2.09,2.13,2.66,2.16,1.19,4.88.43,6.11-1.71.58-1.01.72-2.21.39-3.33-.33-1.14-1.09-2.09-2.13-2.66-.67-.37-1.42-.56-2.18-.56h0Z"/>
        <path id="Path_28081" data-name="Path 28081" class="cls-3" d="M94.78,90.93c-2.35,0-4.66-.58-6.73-1.69-5.34-2.83-8.24-8.79-7.19-14.74l5.23-28.45c.13-.69.79-1.14,1.47-1.01.3.06.57.22.76.46l17.77,22.99c3.35,4.37,3.8,10.31,1.15,15.14-2.51,4.52-7.29,7.32-12.46,7.3M88.06,49.27l-4.66,25.37s-.06.31-.06.31c-.86,4.88,1.53,9.75,5.9,12.07,5.64,3.03,12.67.98,15.8-4.61,2.17-3.95,1.81-8.81-.94-12.39l-16.04-20.75ZM50.46,81.31c-3,0-5.94-.76-8.56-2.21-5.86-3.16-9.37-9.41-9.04-16.06.02-.43.26-.83.64-1.04.38-.21.84-.21,1.22,0l25.63,14.07c.61.33.83,1.09.5,1.7-.1.18-.23.33-.4.44-2.94,2.01-6.43,3.09-9.99,3.09M35.41,65.26c.46,4.93,3.35,9.3,7.7,11.65,4.36,2.41,9.62,2.53,14.09.32l-21.79-11.96ZM65.17,72.26c-.21,0-.42-.05-.61-.16l-28.6-15.7c-.29-.16-.51-.44-.6-.76-.09-.32-.05-.67.11-.96l4-7.09c.34-.6,1.1-.82,1.7-.49l28.6,15.7c.3.16.51.43.6.76.1.32.05.67-.11.96l-4,7.09c-.22.4-.64.64-1.1.64M38.29,54.81l26.4,14.49,2.76-4.9-26.4-14.49-2.76,4.9ZM73.11,58.17c-.21,0-.42-.06-.6-.16l-28.61-15.71c-.29-.16-.51-.43-.6-.76-.09-.32-.05-.67.11-.96l4-7.09c.34-.6,1.1-.82,1.7-.49l28.6,15.71c.29.16.51.43.6.76.09.32.05.67-.11.96l-4,7.1c-.22.4-.64.65-1.1.65M46.22,40.71l26.4,14.5,2.76-4.9-26.4-14.5-2.76,4.9ZM15.83,47.57c-2.45,0-4.86-.63-6.99-1.83C2.12,42.01-.31,33.55,3.42,26.83c.03-.06.07-.12.1-.18,2.79-4.78,8.09-7.51,13.59-7.01l29.15,2.77c.69.07,1.2.68,1.13,1.37-.03.32-.18.61-.41.82l-21.47,19.19s-.23.21-.24.21c-2.61,2.31-5.97,3.58-9.45,3.58M15.84,22.1c-4.17,0-8.03,2.2-10.13,5.81-1.53,2.62-1.93,5.75-1.11,8.67.81,2.97,2.79,5.48,5.48,6.97,4.36,2.46,9.79,1.88,13.54-1.43l19.56-17.48-26.28-2.5c-.35-.03-.7-.05-1.05-.05M79.56,43.26c-.21,0-.42-.05-.61-.15l-25.64-14.08c-.61-.34-.83-1.1-.49-1.71.1-.17.23-.32.39-.43,5.52-3.78,12.7-4.12,18.55-.88,5.86,3.16,9.37,9.41,9.05,16.06-.03.67-.58,1.2-1.25,1.19M56.47,27.89l21.79,11.96c-.46-4.92-3.35-9.29-7.69-11.65-4.36-2.41-9.63-2.52-14.09-.32M86.11,29.59c-1.18,0-2.35-.3-3.39-.87-3.34-1.81-4.58-5.99-2.77-9.33.02-.03.04-.07.06-.1,1.91-3.34,6.14-4.53,9.51-2.68,1.63.88,2.83,2.39,3.34,4.17.51,1.76.28,3.66-.63,5.25-1.25,2.21-3.59,3.57-6.12,3.56M86.13,18.25c-1.63,0-3.13.86-3.93,2.28-.57,1.01-.72,2.22-.39,3.33.33,1.13,1.09,2.09,2.13,2.66,2.16,1.2,4.88.43,6.11-1.71.58-1.01.72-2.21.39-3.33-.32-1.14-1.09-2.1-2.13-2.66-.67-.37-1.42-.56-2.18-.56M67.08,19.15c-1.18,0-2.35-.3-3.38-.87-3.34-1.81-4.58-5.99-2.77-9.33.02-.03.04-.07.06-.1,1.91-3.34,6.14-4.53,9.51-2.68,1.63.88,2.84,2.39,3.34,4.17.51,1.76.28,3.66-.62,5.25-1.25,2.21-3.59,3.56-6.13,3.56M67.1,7.81c-1.62,0-3.13.86-3.93,2.27-.57,1.01-.72,2.22-.39,3.33.33,1.14,1.09,2.09,2.13,2.66,2.16,1.19,4.88.43,6.11-1.71.58-1.01.72-2.21.39-3.33-.33-1.14-1.09-2.09-2.13-2.66-.67-.37-1.42-.56-2.18-.56"/>
        <path id="Path_28082" data-name="Path 28082" class="cls-6" d="M94.78,90.93c-2.35,0-4.66-.58-6.73-1.69-5.34-2.83-8.24-8.79-7.19-14.74l5.23-28.45c.13-.69.79-1.14,1.47-1.01.3.06.57.22.76.46l17.77,22.99c3.35,4.37,3.8,10.31,1.15,15.14-2.51,4.52-7.29,7.32-12.46,7.3ZM88.06,49.27l-4.66,25.37s-.06.31-.06.31c-.86,4.88,1.53,9.75,5.9,12.07,5.64,3.03,12.67.98,15.8-4.61,2.17-3.95,1.81-8.81-.94-12.39l-16.04-20.76ZM50.46,81.31c-3,0-5.94-.76-8.56-2.21-5.86-3.16-9.37-9.41-9.04-16.06.02-.43.26-.83.64-1.04.38-.21.84-.21,1.22,0l25.63,14.07c.61.33.83,1.09.5,1.7-.1.18-.23.33-.4.44-2.94,2.01-6.43,3.09-9.99,3.09ZM35.41,65.26c.46,4.93,3.35,9.3,7.7,11.65,4.36,2.41,9.62,2.53,14.09.32l-21.79-11.96ZM65.17,72.26c-.21,0-.42-.05-.61-.16l-28.6-15.7c-.29-.16-.51-.44-.6-.76-.09-.32-.05-.67.11-.96l4-7.09c.34-.6,1.1-.82,1.7-.49l28.6,15.7c.3.16.51.43.6.76.1.32.05.67-.11.96l-4,7.09c-.22.4-.64.64-1.1.64h0ZM38.29,54.81l26.4,14.49,2.76-4.9-26.4-14.49-2.76,4.9ZM73.11,58.17c-.21,0-.42-.06-.6-.16l-28.61-15.71c-.29-.16-.51-.43-.6-.76-.09-.32-.05-.67.11-.96l4-7.09c.34-.6,1.1-.82,1.7-.49l28.6,15.71c.29.16.51.43.6.76.09.32.05.67-.11.96l-4,7.1c-.22.4-.64.65-1.1.65ZM46.22,40.71l26.4,14.5,2.76-4.9-26.4-14.5-2.76,4.9ZM15.83,47.57c-2.45,0-4.86-.63-6.99-1.83C2.12,42.01-.31,33.55,3.42,26.83c.03-.06.07-.12.1-.18,2.79-4.78,8.09-7.51,13.59-7.01l29.15,2.77c.69.07,1.2.68,1.13,1.37-.03.32-.18.61-.41.82l-21.47,19.19s-.23.21-.24.21c-2.61,2.31-5.97,3.58-9.45,3.58ZM15.84,22.1c-4.17,0-8.03,2.2-10.13,5.81-1.53,2.62-1.93,5.75-1.11,8.67.81,2.97,2.79,5.48,5.48,6.97,4.36,2.46,9.79,1.88,13.54-1.43l19.56-17.48-26.28-2.5c-.35-.03-.7-.05-1.05-.05h0ZM79.56,43.26c-.21,0-.42-.05-.61-.15l-25.64-14.08c-.61-.34-.83-1.1-.49-1.71.1-.17.23-.32.39-.43,5.52-3.78,12.7-4.12,18.55-.88,5.86,3.16,9.37,9.41,9.05,16.06-.03.67-.58,1.2-1.25,1.19h0ZM56.47,27.89l21.79,11.96c-.46-4.92-3.35-9.29-7.69-11.65-4.36-2.4-9.62-2.52-14.09-.32h0ZM86.11,29.59c-1.18,0-2.35-.3-3.39-.87-3.34-1.81-4.58-5.99-2.77-9.33.02-.03.04-.07.06-.1,1.91-3.34,6.14-4.53,9.51-2.68,1.63.88,2.83,2.39,3.34,4.17.51,1.76.28,3.66-.63,5.25-1.25,2.21-3.59,3.57-6.12,3.56h0ZM86.13,18.26c-1.62,0-3.13.86-3.93,2.28-.57,1.01-.72,2.22-.39,3.33.33,1.13,1.09,2.09,2.13,2.66,2.16,1.2,4.88.43,6.11-1.71.58-1.01.72-2.21.39-3.33-.32-1.14-1.09-2.1-2.13-2.66-.67-.37-1.42-.56-2.18-.56h0ZM67.08,19.15c-1.18,0-2.35-.3-3.38-.87-3.34-1.81-4.58-5.99-2.77-9.33.02-.03.04-.07.06-.1,1.91-3.34,6.14-4.53,9.51-2.68,1.63.88,2.84,2.39,3.34,4.17.51,1.76.28,3.66-.62,5.25-1.25,2.21-3.59,3.57-6.13,3.56h0ZM67.1,7.81c-1.62,0-3.13.86-3.93,2.27-.57,1.01-.72,2.22-.39,3.33.33,1.14,1.09,2.09,2.13,2.66,2.16,1.19,4.88.43,6.11-1.71.58-1.01.72-2.21.39-3.33-.33-1.14-1.09-2.09-2.13-2.66-.67-.37-1.42-.56-2.18-.56h0Z"/>
        <path id="Path_28083" data-name="Path 28083" class="cls-2" d="M94.1,88.36c-2.35,0-4.66-.58-6.73-1.69-5.34-2.83-8.24-8.79-7.19-14.74l5.23-28.45c.13-.69.79-1.14,1.47-1.01.3.06.57.22.76.46l17.77,22.98c3.35,4.37,3.8,10.31,1.15,15.14-2.51,4.52-7.29,7.32-12.46,7.3M87.38,46.7l-4.66,25.37s-.06.31-.06.31c-.86,4.88,1.53,9.75,5.9,12.07,5.64,3.03,12.67.98,15.8-4.61,2.17-3.95,1.81-8.81-.94-12.39l-16.04-20.75ZM49.79,78.74c-3,0-5.94-.76-8.56-2.21-5.86-3.16-9.37-9.41-9.04-16.06.02-.43.26-.83.64-1.04.38-.21.84-.21,1.22,0l25.63,14.08c.61.33.83,1.09.5,1.7-.1.18-.23.33-.4.44-2.94,2.01-6.43,3.09-9.99,3.09M34.73,62.69c.46,4.93,3.35,9.3,7.7,11.65,4.36,2.41,9.62,2.53,14.09.32l-21.79-11.96ZM64.5,69.69c-.21,0-.42-.05-.61-.16l-28.61-15.7c-.29-.16-.51-.44-.6-.76-.09-.32-.05-.67.11-.96l4-7.09c.34-.6,1.1-.82,1.7-.49l28.6,15.7c.3.16.51.43.6.76.1.32.05.67-.11.96l-4,7.09c-.22.4-.64.64-1.1.64M37.61,52.23l26.4,14.49,2.76-4.9-26.4-14.49-2.76,4.9ZM72.43,55.6c-.21,0-.42-.06-.6-.16l-28.61-15.71c-.29-.16-.51-.43-.6-.76-.09-.32-.05-.67.11-.96l4-7.09c.34-.6,1.1-.82,1.7-.49l28.6,15.71c.29.16.51.43.6.76.09.32.05.67-.11.96l-4,7.09c-.22.4-.64.65-1.1.65M45.54,38.14l26.4,14.5,2.76-4.9-26.4-14.5-2.76,4.9ZM15.15,45c-2.45,0-4.86-.63-6.99-1.83C1.44,39.44-.99,30.97,2.74,24.26c.03-.06.07-.12.1-.18,2.79-4.78,8.09-7.51,13.59-7.01l29.15,2.77c.69.07,1.2.68,1.13,1.37-.03.32-.18.61-.41.82l-21.47,19.19s-.23.21-.24.21c-2.61,2.31-5.97,3.58-9.45,3.58M15.16,19.53c-4.17,0-8.03,2.2-10.13,5.81-1.53,2.62-1.93,5.75-1.11,8.67.81,2.97,2.79,5.48,5.48,6.97,4.36,2.46,9.79,1.88,13.54-1.43l19.56-17.48-26.28-2.5c-.35-.03-.7-.05-1.05-.05M78.88,40.69c-.21,0-.42-.05-.61-.15l-25.64-14.08c-.61-.34-.83-1.1-.49-1.71.1-.17.23-.32.39-.43,5.52-3.78,12.7-4.12,18.55-.88,5.86,3.16,9.37,9.41,9.05,16.06-.03.67-.58,1.2-1.25,1.19M55.79,25.32l21.79,11.96c-.46-4.92-3.35-9.29-7.69-11.65-4.36-2.41-9.63-2.52-14.09-.32M85.43,27.02c-1.18,0-2.35-.3-3.39-.87-3.34-1.81-4.58-5.99-2.77-9.33.02-.03.04-.07.06-.1,1.91-3.34,6.14-4.53,9.51-2.68,1.63.88,2.83,2.39,3.34,4.17.51,1.76.28,3.66-.63,5.25-1.25,2.21-3.59,3.57-6.12,3.56M85.45,15.68c-1.62,0-3.13.86-3.93,2.27-.57,1.01-.72,2.22-.39,3.33.33,1.13,1.09,2.09,2.13,2.66,2.16,1.2,4.88.43,6.11-1.71.58-1.01.72-2.21.39-3.33-.32-1.14-1.09-2.09-2.13-2.65-.67-.37-1.42-.56-2.18-.56M66.4,16.58c-1.18,0-2.35-.3-3.38-.87-3.34-1.81-4.58-5.99-2.77-9.33.02-.03.04-.07.06-.1,1.91-3.34,6.14-4.53,9.51-2.68,1.63.88,2.84,2.39,3.34,4.17.51,1.76.28,3.66-.62,5.25-1.25,2.21-3.59,3.57-6.13,3.56M66.42,5.24c-1.62,0-3.13.86-3.93,2.27-.57,1.01-.72,2.22-.39,3.33.33,1.14,1.09,2.09,2.13,2.66,2.16,1.19,4.88.43,6.11-1.71.58-1.01.72-2.21.39-3.33-.33-1.14-1.09-2.09-2.13-2.66-.67-.37-1.42-.56-2.18-.56"/>
        <path id="Path_28084" data-name="Path 28084" class="cls-4" d="M94.1,88.36c-2.35,0-4.66-.58-6.73-1.69-5.34-2.83-8.24-8.79-7.19-14.74l5.23-28.45c.13-.69.79-1.14,1.47-1.01.3.06.57.22.76.46l17.77,22.98c3.35,4.37,3.8,10.31,1.15,15.14-2.51,4.52-7.29,7.32-12.46,7.3ZM87.38,46.7l-4.66,25.37s-.06.31-.06.31c-.86,4.88,1.53,9.75,5.9,12.07,5.64,3.03,12.67.98,15.8-4.61,2.17-3.95,1.81-8.81-.94-12.39l-16.04-20.75ZM49.78,78.75c-2.99,0-5.94-.76-8.56-2.21-5.86-3.16-9.37-9.41-9.04-16.06.02-.43.26-.83.64-1.04.38-.21.84-.21,1.22,0l25.63,14.08c.61.33.83,1.09.5,1.7-.1.18-.23.33-.4.44-2.94,2.01-6.43,3.09-9.99,3.09h0ZM34.73,62.69c.46,4.93,3.35,9.3,7.7,11.65,4.36,2.41,9.62,2.53,14.09.32l-21.79-11.96ZM64.49,69.69c-.21,0-.42-.05-.61-.16l-28.61-15.7c-.29-.16-.51-.44-.6-.76-.09-.32-.05-.67.11-.96l4-7.09c.34-.6,1.1-.82,1.7-.49l28.6,15.7c.3.16.51.43.6.76.1.32.05.67-.11.96l-4,7.09c-.22.4-.64.64-1.1.64h0ZM37.61,52.24l26.4,14.49,2.76-4.9-26.4-14.49-2.76,4.9ZM72.43,55.6c-.21,0-.42-.06-.6-.16l-28.61-15.71c-.29-.16-.51-.43-.6-.76-.09-.32-.05-.67.11-.96l4-7.09c.34-.6,1.1-.82,1.7-.49l28.6,15.71c.29.16.51.43.6.76.09.32.05.67-.11.96l-4,7.09c-.22.4-.64.65-1.1.65ZM45.54,38.14l26.4,14.5,2.76-4.9-26.4-14.5-2.76,4.9ZM15.15,45c-2.45,0-4.86-.63-6.99-1.83C1.44,39.44-.99,30.97,2.74,24.26c.03-.06.07-.12.1-.18,2.79-4.78,8.09-7.51,13.59-7.01l29.15,2.77c.69.07,1.2.68,1.13,1.37-.03.32-.18.61-.41.82l-21.47,19.19s-.23.21-.24.21c-2.61,2.31-5.97,3.58-9.45,3.58ZM15.16,19.53c-4.17,0-8.03,2.2-10.13,5.81-1.53,2.62-1.93,5.75-1.11,8.67.81,2.97,2.79,5.48,5.48,6.97,4.36,2.46,9.79,1.88,13.54-1.43l19.56-17.48-26.28-2.5c-.35-.03-.7-.05-1.05-.05ZM78.88,40.69c-.21,0-.42-.05-.61-.15l-25.64-14.08c-.61-.34-.83-1.1-.49-1.71.1-.17.23-.32.39-.43,5.52-3.78,12.7-4.12,18.55-.88,5.86,3.16,9.37,9.41,9.05,16.06-.03.67-.58,1.2-1.25,1.19h0ZM55.79,25.32l21.79,11.96c-.46-4.92-3.35-9.29-7.69-11.65-4.36-2.4-9.62-2.52-14.09-.32h0ZM85.43,27.02c-1.18,0-2.35-.3-3.39-.87-3.34-1.81-4.58-5.99-2.77-9.33.02-.03.04-.07.06-.1,1.91-3.34,6.14-4.53,9.51-2.68,1.63.88,2.83,2.39,3.34,4.17.51,1.76.28,3.66-.63,5.25-1.25,2.21-3.59,3.57-6.12,3.56h0ZM85.45,15.69c-1.62,0-3.13.86-3.93,2.27-.57,1.01-.72,2.22-.39,3.33.33,1.13,1.09,2.09,2.13,2.66,2.16,1.2,4.88.43,6.11-1.71.58-1.01.72-2.21.39-3.33-.32-1.14-1.09-2.09-2.13-2.66-.67-.37-1.42-.56-2.18-.56h0ZM66.4,16.58c-1.18,0-2.35-.3-3.38-.87-3.34-1.81-4.58-5.99-2.77-9.33.02-.03.04-.07.06-.1,1.91-3.34,6.14-4.53,9.51-2.68,1.63.88,2.84,2.39,3.34,4.17.51,1.76.28,3.66-.62,5.25-1.25,2.21-3.59,3.57-6.13,3.56ZM66.42,5.24c-1.62,0-3.13.86-3.93,2.27-.57,1.01-.72,2.22-.39,3.33.33,1.14,1.09,2.09,2.13,2.66,2.16,1.19,4.88.43,6.11-1.71.58-1.01.72-2.21.39-3.33-.33-1.14-1.09-2.09-2.13-2.66-.67-.37-1.42-.56-2.18-.56Z"/>
      </g>
      <g>
        <path id="Path_21725" data-name="Path 21725" class="cls-1" d="M342.86,76.59c-2.95.05-5.88-.49-8.61-1.58-2.46-1.01-4.66-2.58-6.41-4.58-1.82-2.12-3.19-4.58-4.03-7.24-1.89-6.18-1.89-12.79,0-18.98.84-2.65,2.21-5.1,4.03-7.2,1.76-1.98,3.96-3.53,6.41-4.54,5.55-2.11,11.68-2.11,17.23,0,2.45,1.01,4.64,2.56,6.41,4.54,1.82,2.1,3.19,4.55,4.03,7.2,1.89,6.18,1.89,12.79,0,18.98-.85,2.66-2.22,5.12-4.03,7.24-1.75,2-3.95,3.57-6.41,4.58-2.74,1.09-5.67,1.63-8.62,1.58M342.86,66.85c2.44,0,4.33-.75,5.66-2.25,1.33-1.5,2-3.64,2-6.41v-8.9c0-2.77-.67-4.91-2-6.41-1.33-1.5-3.22-2.25-5.66-2.25-2.44,0-4.33.75-5.66,2.25-1.33,1.5-2,6.41-2,6.41v8.91c0,2.78.67,4.91,2,6.41,1.33,1.5,3.22,2.25,5.66,2.25"/>
        <path id="Path_21726" data-name="Path 21726" class="cls-3" d="M337.48,76.59c-2.95.05-5.88-.49-8.62-1.58-2.46-1.01-4.66-2.58-6.41-4.58-1.82-2.12-3.19-4.58-4.04-7.24-1.89-6.18-1.89-12.79,0-18.98.84-2.65,2.21-5.1,4.03-7.2,1.76-1.98,3.95-3.53,6.41-4.54,5.55-2.11,11.68-2.11,17.23,0,2.45,1.01,4.64,2.56,6.41,4.54,1.82,2.1,3.19,4.55,4.03,7.2,1.89,6.18,1.89,12.79,0,18.98-.85,2.66-2.22,5.12-4.03,7.24-1.75,2-3.95,3.57-6.41,4.58-2.74,1.09-5.67,1.63-8.62,1.58M337.48,66.85c2.44,0,4.33-.75,5.66-2.25,1.33-1.5,2-3.64,2-6.41v-8.9c0-2.77-.67-4.91-2-6.41-1.33-1.5-3.22-2.25-5.66-2.25-2.44,0-4.33.75-5.66,2.25-1.33,1.5-2,3.63-2,6.41v8.9c0,2.78.67,4.91,2,6.41,1.33,1.5,3.22,2.25,5.66,2.25"/>
        <g id="BeeTok" class="cls-7">
          <g class="cls-7">
            <path class="cls-2" d="M138.59,17.92h27.88c4.77,0,8.48,1.34,11.14,4.03,2.66,2.69,3.99,6.25,3.99,10.69,0,2.19-.29,4.06-.86,5.59-.58,1.54-1.34,2.8-2.3,3.78-.96.99-2.08,1.71-3.37,2.18-1.29.47-2.67.73-4.15.78v.49c1.37,0,2.81.25,4.32.74,1.51.49,2.89,1.27,4.15,2.34,1.26,1.07,2.32,2.45,3.17,4.15.85,1.7,1.27,3.78,1.27,6.25,0,2.25-.37,4.37-1.11,6.37-.74,2-1.77,3.74-3.08,5.22-1.32,1.48-2.88,2.65-4.69,3.5-1.81.85-3.78,1.27-5.92,1.27h-30.43V17.92ZM151.09,41.44h12.42c1.65,0,2.93-.46,3.87-1.4.93-.93,1.4-2.22,1.4-3.87v-2.47c0-1.65-.47-2.93-1.4-3.87-.93-.93-2.22-1.4-3.87-1.4h-12.42v12.99ZM151.09,64.8h14.39c1.65,0,2.95-.45,3.91-1.36.96-.9,1.44-2.18,1.44-3.82v-2.8c0-1.65-.48-2.92-1.44-3.82-.96-.9-2.26-1.36-3.91-1.36h-14.39v13.16Z"/>
            <path class="cls-2" d="M210.8,76.32c-3.29,0-6.22-.53-8.8-1.6-2.58-1.07-4.76-2.58-6.54-4.52-1.78-1.95-3.13-4.32-4.03-7.11-.9-2.8-1.36-5.92-1.36-9.38s.44-6.48,1.32-9.25c.88-2.77,2.18-5.14,3.91-7.11s3.85-3.5,6.37-4.57c2.52-1.07,5.4-1.6,8.64-1.6,3.56,0,6.62.6,9.17,1.81,2.55,1.21,4.63,2.82,6.25,4.85,1.62,2.03,2.8,4.37,3.54,7.03.74,2.66,1.11,5.44,1.11,8.35v3.62h-27.72v.65c0,2.83.77,5.07,2.3,6.73,1.53,1.66,3.95,2.49,7.24,2.49,2.52,0,4.58-.5,6.17-1.51,1.59-1.01,3.07-2.22,4.44-3.63l6.09,7.59c-1.92,2.25-4.43,4.01-7.53,5.28-3.1,1.26-6.62,1.9-10.57,1.9ZM210.55,40.13c-2.47,0-4.4.81-5.8,2.43-1.4,1.62-2.1,3.77-2.1,6.46v.66h15.13v-.74c0-2.63-.59-4.76-1.77-6.37-1.18-1.62-3-2.43-5.47-2.43Z"/>
          </g>
          <g class="cls-7">
            <path class="cls-2" d="M257.02,76.32c-3.29,0-6.22-.53-8.8-1.6-2.58-1.07-4.76-2.58-6.54-4.52-1.78-1.95-3.13-4.32-4.03-7.11-.9-2.8-1.36-5.92-1.36-9.38s.44-6.48,1.32-9.25c.88-2.77,2.18-5.14,3.91-7.11s3.85-3.5,6.37-4.57c2.52-1.07,5.4-1.6,8.64-1.6,3.56,0,6.62.6,9.17,1.81,2.55,1.21,4.63,2.82,6.25,4.85,1.62,2.03,2.8,4.37,3.54,7.03.74,2.66,1.11,5.44,1.11,8.35v3.62h-27.72v.65c0,2.83.77,5.07,2.3,6.73,1.53,1.66,3.95,2.49,7.24,2.49,2.52,0,4.58-.5,6.17-1.51,1.59-1.01,3.07-2.22,4.44-3.63l6.09,7.59c-1.92,2.25-4.43,4.01-7.53,5.28-3.1,1.26-6.62,1.9-10.57,1.9ZM256.77,40.13c-2.47,0-4.4.81-5.8,2.43-1.4,1.62-2.1,3.77-2.1,6.46v.66h15.13v-.74c0-2.63-.59-4.76-1.77-6.37-1.18-1.62-3-2.43-5.47-2.43Z"/>
          </g>
          <g class="cls-7">
            <path class="cls-2" d="M304.56,29.03v46.3h-12.5V29.03h-15.54v-11.1h43.59v11.1h-15.54Z"/>
          </g>
          <g class="cls-7">
            <path class="cls-2" d="M340.17,76.32c-3.18,0-6.02-.52-8.51-1.56-2.5-1.04-4.61-2.55-6.33-4.52-1.73-1.97-3.06-4.36-3.99-7.16-.93-2.8-1.4-5.92-1.4-9.38s.47-6.58,1.4-9.38c.93-2.8,2.26-5.17,3.99-7.11,1.73-1.95,3.84-3.44,6.33-4.48,2.49-1.04,5.33-1.56,8.51-1.56s6.02.52,8.51,1.56c2.49,1.04,4.61,2.54,6.33,4.48,1.73,1.95,3.06,4.32,3.99,7.11.93,2.8,1.4,5.92,1.4,9.38s-.47,6.58-1.4,9.38c-.93,2.8-2.26,5.18-3.99,7.16-1.73,1.97-3.84,3.48-6.33,4.52-2.5,1.04-5.33,1.56-8.51,1.56ZM340.17,66.69c2.41,0,4.28-.74,5.59-2.22,1.32-1.48,1.97-3.59,1.97-6.33v-8.8c0-2.74-.66-4.85-1.97-6.33-1.32-1.48-3.18-2.22-5.59-2.22s-4.28.74-5.59,2.22c-1.32,1.48-1.97,3.59-1.97,6.33v8.8c0,2.74.66,4.85,1.97,6.33,1.32,1.48,3.18,2.22,5.59,2.22Z"/>
            <path class="cls-2" d="M369.04,14.47h12.17v35.94h.49l5.35-7.98,8.64-10.28h13.49l-14.39,16.53,16.04,26.65h-14.48l-9.7-18.26-5.43,6.09v12.17h-12.17V14.47Z"/>
          </g>
        </g>
      </g>
    </g>
  </g>
</svg>