<?xml version="1.0" encoding="UTF-8"?>
<svg id="Layer_1" data-name="Layer 1" xmlns="http://www.w3.org/2000/svg" viewBox="0 0 500 500">
  <defs>
    <style>
      .cls-1 {
        fill: #23285d;
      }

      .cls-1, .cls-2, .cls-3, .cls-4, .cls-5 {
        stroke-width: 0px;
      }

      .cls-2 {
        fill: #cb36a6;
      }

      .cls-3 {
        fill: #8ad5ed;
      }

      .cls-4 {
        fill: #910bcd;
      }

      .cls-5 {
        fill: #fff;
      }
    </style>
  </defs>
  <g>
    <path class="cls-1" d="m62.73,257.26h21.05c3.9,0,7.44.66,10.62,1.98,3.18,1.32,5.89,3.28,8.14,5.89s3.97,5.88,5.17,9.81c1.2,3.93,1.8,8.5,1.8,13.72s-.6,9.79-1.8,13.72c-1.2,3.93-2.92,7.2-5.17,9.81s-4.96,4.57-8.14,5.89c-3.18,1.32-6.72,1.98-10.62,1.98h-21.05v-62.8Zm21.05,56.14c2.58,0,4.95-.43,7.11-1.3,2.16-.87,4.02-2.14,5.58-3.82,1.56-1.68,2.77-3.73,3.64-6.16.87-2.43,1.3-5.2,1.3-8.32v-10.26c0-3.12-.44-5.89-1.3-8.32-.87-2.43-2.08-4.48-3.64-6.16-1.56-1.68-3.42-2.95-5.58-3.82-2.16-.87-4.53-1.3-7.11-1.3h-13.5v49.48h13.5Z"/>
    <path class="cls-1" d="m156.12,320.06c-2.7,0-4.63-.72-5.8-2.16s-1.91-3.24-2.2-5.4h-.45c-1.02,2.88-2.7,5.04-5.04,6.48s-5.13,2.16-8.37,2.16c-4.92,0-8.74-1.26-11.47-3.78-2.73-2.52-4.09-5.94-4.09-10.26s1.6-7.74,4.81-10.08c3.21-2.34,8.2-3.51,14.98-3.51h9.18v-4.59c0-3.3-.9-5.82-2.7-7.56-1.8-1.74-4.56-2.61-8.28-2.61-2.82,0-5.17.63-7.06,1.89-1.89,1.26-3.46,2.94-4.72,5.04l-4.32-4.05c1.26-2.52,3.27-4.66,6.03-6.43,2.76-1.77,6.24-2.65,10.44-2.65,5.64,0,10.02,1.38,13.14,4.13,3.12,2.75,4.68,6.58,4.68,11.49v25.5h5.31v6.39h-4.05Zm-20.69-5.04c1.8,0,3.45-.21,4.95-.63,1.5-.42,2.79-1.02,3.87-1.8,1.08-.78,1.92-1.68,2.52-2.7.6-1.02.9-2.13.9-3.33v-7.65h-9.54c-4.14,0-7.15.6-9.04,1.8-1.89,1.2-2.83,2.94-2.83,5.22v1.89c0,2.28.82,4.05,2.47,5.31,1.65,1.26,3.88,1.89,6.7,1.89Z"/>
    <path class="cls-1" d="m180.69,320.06c-2.52,0-4.42-.7-5.71-2.11-1.29-1.41-1.93-3.25-1.93-5.52v-32.41h-7.65v-6.39h4.32c1.56,0,2.62-.32,3.19-.94.57-.63.85-1.72.85-3.28v-8.64h6.48v12.87h10.17v6.39h-10.17v33.65h9.45v6.39h-9Z"/>
    <path class="cls-1" d="m235.75,320.06c-2.7,0-4.63-.72-5.8-2.16s-1.91-3.24-2.2-5.4h-.45c-1.02,2.88-2.7,5.04-5.04,6.48s-5.13,2.16-8.37,2.16c-4.92,0-8.74-1.26-11.47-3.78-2.73-2.52-4.09-5.94-4.09-10.26s1.6-7.74,4.81-10.08c3.21-2.34,8.2-3.51,14.98-3.51h9.18v-4.59c0-3.3-.9-5.82-2.7-7.56-1.8-1.74-4.56-2.61-8.28-2.61-2.82,0-5.17.63-7.06,1.89-1.89,1.26-3.46,2.94-4.72,5.04l-4.32-4.05c1.26-2.52,3.27-4.66,6.03-6.43,2.76-1.77,6.24-2.65,10.44-2.65,5.64,0,10.02,1.38,13.14,4.13,3.12,2.75,4.68,6.58,4.68,11.49v25.5h5.31v6.39h-4.05Zm-20.69-5.04c1.8,0,3.45-.21,4.95-.63,1.5-.42,2.79-1.02,3.87-1.8,1.08-.78,1.92-1.68,2.52-2.7.6-1.02.9-2.13.9-3.33v-7.65h-9.54c-4.14,0-7.15.6-9.04,1.8-1.89,1.2-2.83,2.94-2.83,5.22v1.89c0,2.28.82,4.05,2.47,5.31,1.65,1.26,3.88,1.89,6.7,1.89Z"/>
    <path class="cls-1" d="m299.72,267.16h-.45l-5.31,10.53-15.03,27.35-15.03-27.35-5.31-10.53h-.45v52.9h-7.38v-62.8h10.08l17.99,33.83h.45l18.08-33.83h9.72v62.8h-7.38v-52.9Z"/>
    <path class="cls-1" d="m351.72,273.64h7.11l-20.78,57.22c-.54,1.38-1.08,2.53-1.62,3.46-.54.93-1.2,1.66-1.98,2.2-.78.54-1.75.93-2.92,1.17-1.17.24-2.6.36-4.27.36h-3.69v-6.39h7.29l3.51-9.88-17.36-48.15h7.2l11.16,31.52,2.16,7.54h.45l2.52-7.54,11.25-31.52Z"/>
    <path class="cls-1" d="m378.26,320.06c-2.52,0-4.42-.7-5.71-2.11-1.29-1.41-1.93-3.25-1.93-5.52v-32.41h-7.65v-6.39h4.32c1.56,0,2.62-.32,3.19-.94.57-.63.85-1.72.85-3.28v-8.64h6.48v12.87h10.17v6.39h-10.17v33.65h9.45v6.39h-9Z"/>
    <path class="cls-1" d="m416.68,321.14c-3.18,0-6.04-.57-8.59-1.71-2.55-1.14-4.74-2.77-6.57-4.9-1.83-2.13-3.24-4.68-4.23-7.65-.99-2.97-1.48-6.31-1.48-10.03s.49-6.99,1.48-9.99c.99-3,2.4-5.56,4.23-7.69,1.83-2.13,4.02-3.76,6.57-4.9,2.55-1.14,5.41-1.71,8.59-1.71s5.91.57,8.37,1.7c2.46,1.14,4.56,2.71,6.3,4.71,1.74,2,3.07,4.38,4,7.13.93,2.75,1.39,5.77,1.39,9.06v3.41h-33.38v2.16c0,1.98.32,3.82.94,5.53.63,1.71,1.53,3.19,2.7,4.45s2.61,2.25,4.32,2.97c1.71.72,3.64,1.08,5.8,1.08,2.94,0,5.5-.69,7.69-2.07,2.19-1.38,3.88-3.36,5.08-5.94l5.13,3.71c-1.5,3.2-3.84,5.78-7.02,7.74-3.18,1.96-6.96,2.94-11.34,2.94Zm0-42.56c-1.98,0-3.78.34-5.4,1.03-1.62.69-3.01,1.65-4.18,2.91-1.17,1.25-2.08,2.73-2.74,4.43-.66,1.7-.99,3.56-.99,5.59v.63h25.64v-.98c0-4.11-1.12-7.41-3.37-9.88s-5.23-3.71-8.95-3.71Z"/>
  </g>
  <g>
    <path class="cls-1" d="m287.91,186.78c-.8-1.13-2.26-1.4-3.61-.63-2.4,1.36-4.8,2.73-7.18,4.13-.52.3-.69.17-.95-.29-2.68-4.71-5.41-9.39-8.06-14.12-.75-1.33-1.75-1.91-3.27-1.9-5.4.04-10.81,0-16.21.02-.55,0-.75-.16-.74-.72.03-1.73,0-3.47.02-5.2.02-1.17.1-2.34-.02-3.5-.15-1.38-1.31-2.31-2.76-2.23-1.34.07-2.38,1.13-2.4,2.48-.03,2.16-.04,4.31-.06,6.47,0,.73-.01,1.45,0,2.18,0,.39-.15.51-.54.5-3.63-.02-7.26,0-10.89-.03-1.22-.01-2.06.5-2.66,1.54-5.68,9.79-11.36,19.58-17.05,29.37-.59,1.02-.59,2.01,0,3.03,3.97,6.9,7.93,13.8,11.89,20.7,1.73,3,3.45,6.01,5.18,9.01.46.8,1.16,1.23,2.07,1.27,1.17.05,2.34.07,3.5.07,5.16,0,10.32,0,15.48,0v.04c5.14,0,10.28,0,15.42,0,1.21,0,2.07-.47,2.68-1.52,1.81-3.14,3.64-6.27,5.46-9.41,3.88-6.69,7.76-13.38,11.65-20.07.56-.97.56-1.93-.01-2.92-1.81-3.12-3.58-6.26-5.39-9.38-.26-.44-.17-.63.24-.83.4-.2.77-.43,1.16-.65,2.06-1.18,4.13-2.35,6.18-3.56,1.44-.85,1.81-2.55.9-3.85Zm-20.92,41.54c-.82,1.43-1.67,2.84-2.48,4.28-.45.8-1.05,1.18-1.99,1.18-8.93-.03-17.85-.02-26.78-.05-.88,0-1.77-.05-2.65-.09-.55-.02-.94-.33-1.2-.79-1.05-1.83-2.1-3.66-3.15-5.5-2.42-4.22-4.84-8.44-7.27-12.66-1.42-2.48-2.84-4.95-4.27-7.42-.36-.62-.35-1.17.02-1.81,1.73-2.95,3.43-5.92,5.14-8.87.11-.18.19-.4.4-.51.51-1.21,1.25-2.29,1.9-3.42,1.59-2.77,3.2-5.53,4.81-8.29.07-.12.16-.22.25-.33.53-1.15,1.25-2.2,1.86-3.3.18-.32.4-.17.61-.05,1.6.93,3.19,1.87,4.79,2.8,5.71,3.31,11.42,6.62,17.12,9.93,7.76,4.5,15.51,9.02,23.27,13.52.38.22.77.44,1.16.65.24.13.32.29.17.54-.64,1.04-1.17,2.15-1.9,3.14-.49,1.17-1.23,2.21-1.85,3.31-1.26,2.22-2.55,4.42-3.83,6.63-.4.69-.82,1.36-1.23,2.04-.96,1.69-1.92,3.39-2.89,5.08Zm2.15,5.68h0s.08,0,.11-.02c-.03.01-.07.02-.11.02Z"/>
    <path class="cls-2" d="m276.8,211.27c-.49,1.17-1.23,2.21-1.85,3.31-1.26,2.22-2.55,4.42-3.83,6.63-.4.69-.82,1.36-1.23,2.04-.52.22-1.03-.03-1.54-.02-1.37.02-2.72-.19-4.08-.28-1.96-.12-3.91-.33-5.87-.46-1.12-.07-2.23-.19-3.36-.26-1.84-.11-3.67-.33-5.51-.44-1.26-.07-2.51-.23-3.78-.28-1.72-.08-3.43-.34-5.14-.43-.76-.04-1.24-.35-1.63-.93-1.41-2.1-2.79-4.22-4.24-6.29-2.47-3.54-4.76-7.2-7.26-10.72-1.64-2.31-3.15-4.7-4.73-7.06.51-1.21,1.25-2.29,1.9-3.42,1.59-2.77,3.2-5.53,4.81-8.29.07-.12.16-.22.25-.33,1.63,2.41,3.26,4.81,4.88,7.22,2.22,3.3,4.39,6.63,6.66,9.89,1.6,2.31,3.14,4.66,4.72,6.98.43.63,1,.89,1.71.94,1.26.08,2.52.15,3.78.25,2.25.19,4.5.43,6.76.58,2.06.14,4.11.33,6.17.48,2.06.15,4.11.3,6.17.49,2.08.19,4.16.27,6.24.4Z"/>
    <path class="cls-3" d="m222.76,196.07c1.57,2.35,3.09,4.75,4.73,7.06,2.5,3.52,4.78,7.19,7.26,10.72,1.45,2.07,2.83,4.19,4.24,6.29.39.58.87.89,1.63.93,1.72.09,3.43.35,5.14.43,1.26.06,2.52.21,3.78.28,1.84.11,3.67.33,5.51.44,1.12.07,2.24.19,3.36.26,1.96.13,3.91.33,5.87.46,1.36.09,2.71.3,4.08.28.51,0,1.03.24,1.54.02-.96,1.69-1.92,3.39-2.89,5.08-.82,1.43-1.67,2.84-2.48,4.28-.45.8-1.05,1.18-1.99,1.18-8.93-.03-17.85-.02-26.78-.05-.88,0-1.77-.05-2.65-.09-.55-.02-.94-.33-1.2-.79-1.05-1.83-2.1-3.66-3.15-5.5-2.42-4.22-4.84-8.44-7.27-12.66-1.42-2.48-2.84-4.95-4.27-7.42-.36-.62-.35-1.17.02-1.81,1.73-2.95,3.43-5.92,5.14-8.87.11-.18.19-.4.4-.51Z"/>
    <path class="cls-4" d="m276.8,211.27c-2.08-.13-4.17-.21-6.24-.4-2.05-.18-4.11-.33-6.17-.49-2.06-.15-4.11-.34-6.17-.48-2.26-.15-4.51-.4-6.76-.58-1.26-.1-2.52-.17-3.78-.25-.72-.05-1.29-.31-1.71-.94-1.58-2.32-3.11-4.68-4.72-6.98-2.27-3.26-4.44-6.59-6.66-9.89-1.62-2.41-3.25-4.81-4.88-7.22.53-1.15,1.25-2.2,1.86-3.3.18-.32.4-.17.61-.05,1.6.93,3.19,1.87,4.79,2.8,5.71,3.31,11.42,6.62,17.12,9.93,7.76,4.5,15.51,9.02,23.27,13.52.38.22.77.44,1.16.65.24.13.32.29.17.54-.64,1.04-1.17,2.15-1.9,3.14Z"/>
    <circle class="cls-5" cx="243.41" cy="214.13" r="2.86"/>
    <circle class="cls-5" cx="236.2" cy="226.19" r="2.86"/>
  </g>
</svg>