<svg xmlns="http://www.w3.org/2000/svg" xmlns:xlink="http://www.w3.org/1999/xlink" width="135.189" height="23.943" viewBox="0 0 135.189 23.943">
  <defs>
    <clipPath id="clip-path">
      <path id="Path_10163" data-name="Path 10163" d="M0-46.173H23.943V-70.116H0Z" transform="translate(0 70.116)" fill="none"/>
    </clipPath>
  </defs>
  <g id="Group_97523" data-name="Group 97523" transform="translate(-14.059 -13)">
    <path id="Path_28084" data-name="Path 28084" d="M5.44,0V-1.12H3.872v-8.928H5.44v-1.12H.96v1.12H2.528V-1.12H.96V0ZM7.888,0H12.96a3,3,0,0,0,2.88-3.232,2.436,2.436,0,0,0-2.192-2.592v-.1a2.168,2.168,0,0,0,1.808-2.368,2.731,2.731,0,0,0-2.976-2.88H7.888ZM9.232-5.184h3.312A1.636,1.636,0,0,1,14.4-3.456v.544a1.636,1.636,0,0,1-1.856,1.728H9.232Zm0-4.8H12.32a1.489,1.489,0,0,1,1.7,1.552v.544a1.489,1.489,0,0,1-1.7,1.552H9.232ZM18.336,0h1.312V-9.408h.08l.944,1.872,2.672,4.864,2.672-4.864.944-1.872h.08V0h1.312V-11.168H26.624L23.408-5.152h-.08l-3.2-6.016H18.336Zm23.6,0h2.048V-6.224h-4.4v2.032h2.08v.56c0,1.088-.976,1.664-2.192,1.664-1.5,0-2.48-.864-2.48-2.72V-6.48c0-1.856.976-2.72,2.48-2.72a2.309,2.309,0,0,1,2.32,1.568l1.984-1.136a4.468,4.468,0,0,0-4.3-2.592c-3.024,0-5.056,2.064-5.056,5.824,0,3.744,2.016,5.728,4.576,5.728,1.68,0,2.7-.848,2.864-1.968h.08ZM53.744,0V-1.84H52.96V-5.52c0-1.984-1.216-3.072-3.584-3.072a3.662,3.662,0,0,0-3.392,1.6l1.408,1.248A2.074,2.074,0,0,1,49.2-6.736c.992,0,1.392.512,1.392,1.328v.528H49.264c-2.224,0-3.6.848-3.6,2.624A2.34,2.34,0,0,0,48.272.192a2.269,2.269,0,0,0,2.464-1.664h.1A1.6,1.6,0,0,0,52.432,0ZM49.152-1.456c-.7,0-1.1-.288-1.1-.9v-.24c0-.608.48-.944,1.392-.944h1.152v.992C50.592-1.776,49.936-1.456,49.152-1.456ZM57.7,0V-5.44a1.27,1.27,0,0,1,1.392-1.232c.768,0,1.152.512,1.152,1.6V0h2.368V-5.44A1.261,1.261,0,0,1,64-6.672c.784,0,1.152.512,1.152,1.6V0H67.52V-5.264c0-2.112-.9-3.328-2.512-3.328a2.609,2.609,0,0,0-2.56,1.7H62.4a2.324,2.324,0,0,0-2.352-1.7,2.241,2.241,0,0,0-2.256,1.616h-.1V-8.4H55.328V0Zm15.44.192A4.553,4.553,0,0,0,76.656-1.2L75.472-2.672a2.662,2.662,0,0,1-2.064,1.008,1.65,1.65,0,0,1-1.856-1.808V-3.6h5.392v-.7c0-2.272-1.12-4.288-3.9-4.288-2.528,0-3.936,1.728-3.936,4.384C69.1-1.52,70.56.192,73.136.192Zm-.048-7.04c.944,0,1.408.688,1.408,1.712v.144H71.552V-5.12A1.536,1.536,0,0,1,73.088-6.848ZM87.008.192c2.96,0,4.912-1.984,4.912-5.776s-1.952-5.776-4.912-5.776S82.1-9.376,82.1-5.584,84.048.192,87.008.192Zm0-2.16c-1.456,0-2.336-1.008-2.336-2.784V-6.416c0-1.776.88-2.784,2.336-2.784s2.336,1.008,2.336,2.784v1.664C89.344-2.976,88.464-1.968,87.008-1.968ZM96.192,0V-5.44c0-.832.752-1.232,1.52-1.232.864,0,1.168.528,1.168,1.6V0h2.368V-5.264c0-2.112-.912-3.328-2.624-3.328a2.291,2.291,0,0,0-2.336,1.616h-.1V-8.4H93.824V0Z" transform="translate(48 31)"/>
    <g id="Group_75404" data-name="Group 75404" transform="translate(14.059 13)" clip-path="url(#clip-path)">
      <g id="Group_75402" data-name="Group 75402" transform="translate(0 0)">
        <path id="Path_10161" data-name="Path 10161" d="M-23.087-23.171l7.941-9a11.923,11.923,0,0,0-7.941-3.016A11.971,11.971,0,0,0-35.058-23.215,11.971,11.971,0,0,0-23.087-11.244a11.971,11.971,0,0,0,11.97-11.927Z" transform="translate(35.058 35.186)" fill="#4588ff"/>
      </g>
      <g id="Group_75403" data-name="Group 75403" transform="translate(0 11.971)">
        <path id="Path_10162" data-name="Path 10162" d="M0,0A11.971,11.971,0,0,0,11.971,11.971,11.971,11.971,0,0,0,23.943,0H0Z" fill="#0d61fd"/>
      </g>
    </g>
  </g>
</svg>
